<?xml version="1.0" standalone="no"?><svg xmlns="http://www.w3.org/2000/svg" viewBox="0 0 1440 320"><path fill="#000b76" fill-opacity="1" d="M0,192L40,170.7C80,149,160,107,240,90.7C320,75,400,85,480,106.7C560,128,640,160,720,186.7C800,213,880,235,960,218.7C1040,203,1120,149,1200,122.7C1280,96,1360,96,1400,96L1440,96L1440,320L1400,320C1360,320,1280,320,1200,320C1120,320,1040,320,960,320C880,320,800,320,720,320C640,320,560,320,480,320C400,320,320,320,240,320C160,320,80,320,40,320L0,320Z"></path></svg>